<svg version="1.1" id="Layer_1" xmlns="http://www.w3.org/2000/svg" xmlns:xlink="http://www.w3.org/1999/xlink" x="0px" y="0px"
	 width="100%" viewBox="0 0 492 429" enable-background="new 0 0 492 429" xml:space="preserve">
<path fill="#030302" opacity="1.000000" stroke="none" 
	d="
M1.000000,162.000000 
	C1.000000,108.000000 1.000000,54.500000 1.000000,1.000000 
	C165.000000,1.000000 329.000000,1.000000 493.000000,1.000000 
	C493.000000,144.000000 493.000000,287.000000 493.000000,430.000000 
	C329.000000,430.000000 165.000000,430.000000 1.000000,430.000000 
	C1.000000,340.833344 1.000000,251.666672 1.000000,162.000000 
M174.620438,46.996746 
	C175.286591,46.711529 175.952744,46.426311 176.618896,46.141094 
	C176.487228,45.922977 176.355560,45.704857 176.223892,45.486736 
	C175.483398,45.991703 174.742905,46.496666 173.601349,47.245480 
	C173.614792,47.585430 173.628235,47.925385 173.641678,48.265335 
	C173.760315,47.842670 173.878937,47.420006 174.620438,46.996746 
M364.161285,218.636017 
	C370.607910,205.244049 375.173828,191.324585 376.534424,176.272751 
	C290.440765,176.272751 204.863190,176.272751 119.064484,176.272751 
	C119.180206,177.896820 119.183708,179.216614 119.379250,180.507339 
	C127.212761,232.213181 165.653976,274.446838 216.655899,287.018921 
	C275.385864,301.495911 336.187592,273.804230 364.161285,218.636017 
M136.172150,94.666183 
	C134.164246,98.401863 132.156326,102.137550 129.876816,106.378540 
	C208.815964,106.378540 286.820740,106.378540 365.877258,106.378540 
	C344.419098,64.678108 311.850952,38.610313 265.965576,32.706760 
	C210.429413,25.561550 167.189346,47.217651 136.172150,94.666183 
M189.500000,146.856750 
	C251.733322,146.856750 313.966644,146.856750 377.751678,146.856750 
	C375.073090,136.492172 372.616150,127.240387 370.310760,117.951004 
	C369.245361,113.658066 367.168365,112.022141 362.326630,112.035072 
	C287.690063,112.234322 213.052841,112.174110 138.415756,112.174126 
	C126.894829,112.174126 126.649849,112.105118 123.559967,123.075096 
	C121.432381,130.628647 120.100830,138.406433 118.243721,146.856537 
	C142.598755,146.856537 165.549377,146.856537 189.500000,146.856750 
M169.092728,356.376221 
	C169.440048,358.847870 169.743515,361.326630 170.141464,363.790100 
	C174.435959,390.375916 188.116379,409.042969 215.156235,415.677460 
	C236.831497,420.995667 258.749451,420.974243 280.432770,415.674438 
	C299.330902,411.055298 313.349487,400.188904 320.587036,381.584930 
	C325.236237,369.634277 326.787018,357.114380 327.391022,344.425568 
	C327.448975,343.208344 327.258392,341.979248 327.156494,340.320892 
	C303.515961,359.729645 275.759064,362.389221 247.528107,362.386169 
	C219.370682,362.383148 191.733566,359.515503 167.778519,339.862244 
	C168.261871,345.954010 168.639755,350.716675 169.092728,356.376221 
M396.269928,414.985168 
	C408.796051,409.038788 413.129547,400.317841 411.530457,384.273987 
	C429.735748,382.801178 438.177490,377.329620 441.424500,364.897949 
	C444.136017,354.516571 440.105408,342.969757 430.708038,337.546051 
	C426.308228,335.006775 420.791748,333.626190 415.676117,333.281250 
	C407.561554,332.734070 401.235962,337.329407 395.797424,343.303223 
	C370.603912,320.394562 345.680603,297.731598 320.757294,275.068634 
	C320.284119,275.475525 319.810944,275.882446 319.337738,276.289368 
	C320.075256,277.856781 320.773529,279.444122 321.556458,280.988495 
	C328.034515,293.766907 333.466705,307.357544 332.705597,321.538727 
	C331.926971,336.045502 338.184906,344.899017 348.719177,352.986511 
	C356.147278,358.689301 362.642975,365.606567 369.515045,371.944794 
	C359.733704,383.935974 358.479034,395.528137 365.483978,405.822510 
	C372.017365,415.423981 383.362000,418.984436 396.269928,414.985168 
M175.926193,276.310974 
	C174.488922,276.838196 172.715591,276.994476 171.663956,277.947327 
	C149.956161,297.615662 128.331741,317.375946 106.686699,337.113586 
	C104.405899,339.193390 102.099632,341.245239 99.844582,343.274628 
	C89.035255,332.577972 77.807434,330.246582 66.917953,336.097198 
	C56.995277,341.428375 51.436352,352.250763 54.168056,363.411011 
	C55.369499,368.319489 58.278164,373.284088 61.689999,377.071716 
	C67.496681,383.517975 75.654434,384.823395 84.112770,383.846924 
	C82.710083,400.420898 87.678551,410.278687 99.538635,415.052307 
	C109.889526,419.218445 122.007278,416.088593 128.865143,407.477539 
	C137.145721,397.080139 136.389099,386.048553 126.215164,371.731964 
	C137.211746,361.683563 148.307770,351.668976 159.203781,341.441284 
	C160.685059,340.050873 162.026672,337.571960 161.976837,335.634521 
	C161.442352,314.853088 166.091965,295.373657 175.926193,276.310974 
M405.996704,40.065010 
	C408.278748,45.304283 410.560822,50.543552 413.284424,56.796577 
	C413.117676,56.929008 411.766602,57.877144 410.558014,58.981239 
	C397.400970,71.000801 384.335999,83.122635 371.065674,95.015457 
	C368.457214,97.353127 368.226959,99.031807 369.784271,102.138031 
	C372.385193,107.325859 374.511414,112.795784 376.351868,118.309067 
	C378.422302,124.511314 379.954773,130.893143 381.865082,137.710022 
	C401.673950,119.594376 421.019043,101.902840 440.328979,84.243492 
	C451.733215,95.033127 462.895111,97.259911 473.703247,91.215889 
	C483.369171,85.810623 489.020844,74.622757 486.122772,64.167770 
	C484.723541,59.119804 481.742523,54.065792 478.214600,50.153568 
	C472.512421,43.830269 464.409912,42.857796 456.616150,43.643402 
	C456.616150,39.893898 456.963654,36.563873 456.556244,33.328926 
	C454.752289,19.004978 442.947418,9.620037 428.525055,10.815649 
	C414.578094,11.971850 405.210388,23.718912 405.996704,40.065010 
M119.230476,90.281189 
	C106.641495,78.724319 94.052513,67.167458 81.491661,55.636406 
	C91.127594,43.619858 92.477188,32.460625 85.796288,22.260258 
	C79.714020,12.973876 68.273865,8.123434 57.979183,11.690042 
	C53.032162,13.403948 48.140938,16.689987 44.517887,20.495501 
	C38.547657,26.766409 37.933144,35.021091 39.634373,43.335766 
	C21.968027,44.148396 13.306219,49.687645 9.823044,62.078224 
	C6.830786,72.722481 10.947809,83.938263 20.123793,90.140022 
	C30.812965,97.364479 41.065140,95.746559 55.496006,84.429504 
	C74.801628,102.085701 94.140717,119.772507 113.356369,137.346420 
	C116.715714,127.145851 119.553154,117.249870 123.241844,107.682076 
	C127.089203,97.702751 127.447891,97.841034 119.230476,90.281189 
M364.499969,170.154999 
	C385.829224,170.155151 407.158508,170.157166 428.487762,170.153687 
	C432.320221,170.153061 436.163849,170.309570 439.982269,170.071442 
	C444.709045,169.776657 448.027527,166.117325 448.089600,161.558090 
	C448.154022,156.825989 445.148987,153.331924 440.346008,152.747971 
	C438.536072,152.527939 436.687164,152.588577 434.856018,152.588486 
	C310.045685,152.581802 185.235367,152.581192 60.425034,152.588867 
	C58.594593,152.588974 56.740147,152.532440 54.938457,152.791428 
	C50.429943,153.439484 47.580276,156.888229 47.585709,161.449860 
	C47.590942,165.845779 50.666481,169.471649 55.063519,170.034500 
	C56.869877,170.265717 58.723595,170.152786 60.555767,170.152847 
	C161.537155,170.156464 262.518555,170.155426 364.499969,170.154999 
M227.556519,355.946045 
	C233.276474,356.269592 238.996445,356.593109 244.663284,356.913666 
	C244.663284,346.570648 244.663284,337.134705 244.663284,327.804993 
	C232.842590,326.699066 221.316040,325.620667 209.352188,324.501373 
	C208.368362,333.792908 207.379608,343.130920 206.338531,352.963074 
	C213.502319,353.997253 220.069016,354.945221 227.556519,355.946045 
M260.138031,356.466827 
	C269.805450,355.399414 279.472900,354.332001 289.483185,353.226746 
	C288.332153,342.820587 287.313873,333.614410 286.305176,324.495117 
	C274.287842,325.624329 262.759857,326.707581 251.040176,327.808838 
	C251.040176,337.303375 251.040176,346.857819 251.040176,356.511688 
	C253.962601,356.511688 256.586853,356.511688 260.138031,356.466827 
M190.183044,347.312592 
	C193.549957,348.560669 196.916870,349.808777 200.739059,351.225616 
	C201.808289,341.377777 202.806000,332.188477 203.695328,323.997528 
	C192.175369,318.607330 181.304993,313.521088 170.598038,308.511292 
	C165.358337,332.314728 165.208588,332.701904 185.910736,345.245972 
	C187.042145,345.931488 188.299835,346.408569 190.183044,347.312592 
M299.244354,349.730194 
	C308.788544,346.414246 317.471039,341.633057 324.686737,334.467804 
	C325.930786,333.232452 327.644867,331.507172 327.580444,330.078552 
	C327.241882,322.567841 326.401825,315.079712 325.791626,308.211090 
	C314.198792,313.594727 303.442261,318.589966 291.962921,323.920868 
	C292.904083,332.180267 293.962158,341.465790 295.049927,351.012146 
	C296.605438,350.537903 297.550873,350.249634 299.244354,349.730194 
M212.784790,318.836426 
	C223.309189,319.923187 233.833588,321.009918 244.648102,322.126617 
	C244.648102,312.984467 244.648102,304.946808 244.648102,297.078522 
	C234.022934,295.603668 223.716080,294.173004 212.881302,292.669067 
	C211.987717,300.566803 211.034454,308.614899 210.251495,316.679504 
	C210.193390,317.278015 211.358429,317.995239 212.784790,318.836426 
M284.777924,310.457550 
	C284.083282,304.428528 283.388641,298.399506 282.727692,292.662994 
	C271.735229,294.192047 261.433441,295.625031 251.067459,297.066956 
	C251.067459,305.069946 251.067459,313.115265 251.067459,322.033722 
	C262.753540,320.951569 274.034119,319.906952 285.565735,318.839081 
	C285.254242,315.580444 285.050873,313.452606 284.777924,310.457550 
M179.365677,282.988464 
	C177.298401,287.881134 175.125626,292.733765 173.243042,297.696472 
	C172.808960,298.840759 172.827423,300.968353 173.554169,301.617798 
	C182.358917,309.486206 192.812988,314.020691 204.484421,316.888275 
	C205.376648,308.669373 206.356293,301.097137 206.874969,293.493439 
	C206.965530,292.165863 205.429443,290.051361 204.108704,289.418121 
	C197.677017,286.334564 190.964188,283.833008 184.561127,280.696289 
	C181.883789,279.384705 180.639587,279.814301 179.365677,282.988464 
M313.399323,279.704468 
	C306.100800,282.899170 298.768646,286.021088 291.536621,289.359802 
	C290.324127,289.919586 288.634003,291.489044 288.709900,292.472595 
	C289.330475,300.509399 290.317871,308.517883 291.230896,316.874573 
	C302.625671,313.956360 312.619904,309.714569 321.110352,302.454895 
	C322.076630,301.628662 322.904144,299.420105 322.482483,298.390350 
	C319.920074,292.132874 316.976929,286.031311 313.399323,279.704468 
M410.500000,147.998169 
	C420.435303,147.998169 430.370636,147.998169 440.305939,147.998169 
	C440.287292,147.607254 440.268646,147.216354 440.250000,146.825439 
	C421.523773,146.825439 402.797577,146.825439 384.071381,146.825439 
	C384.073029,147.216354 384.074677,147.607254 384.076294,147.998169 
	C392.550873,147.998169 401.025421,147.998169 410.500000,147.998169 
M87.476265,146.001831 
	C76.548828,146.001831 65.621391,146.001831 54.693958,146.001831 
	C54.703709,146.532120 54.713455,147.062393 54.723202,147.592682 
	C71.386154,147.592682 88.049103,147.592682 104.712051,147.592682 
	C104.721298,147.381500 104.730553,147.170319 104.739799,146.959137 
	C99.315170,146.640045 93.890549,146.320953 87.476265,146.001831 
M95.821159,38.739326 
	C95.492027,34.714375 95.162895,30.689423 94.833763,26.664471 
	C94.394768,26.711119 93.955765,26.757765 93.516769,26.804413 
	C93.675774,29.812317 93.725670,32.831944 94.047005,35.822407 
	C94.177132,37.033379 94.899323,38.180737 95.821159,38.739326 
M210.410980,31.485210 
	C207.036255,31.983135 203.661530,32.481060 200.286789,32.978985 
	C200.427658,33.594044 200.568527,34.209106 200.709396,34.824169 
	C203.760422,33.840775 206.811462,32.857376 210.410980,31.485210 
M139.009811,390.024536 
	C139.101273,391.819580 139.192734,393.614594 139.284210,395.409637 
	C139.701569,395.378387 140.118927,395.347137 140.536285,395.315887 
	C140.536285,392.590027 140.536285,389.864197 140.536285,385.867096 
	C139.714722,387.780701 139.400925,388.511597 139.009811,390.024536 
M311.244507,42.097424 
	C312.148071,42.334293 313.051636,42.571163 313.955200,42.808033 
	C314.016418,42.563381 314.077637,42.318733 314.138855,42.074085 
	C310.999023,40.523434 307.859222,38.972786 304.719391,37.422138 
	C304.548950,37.767143 304.378479,38.112144 304.208008,38.457150 
	C306.340759,39.577446 308.473480,40.697742 311.244507,42.097424 
M251.169388,26.998165 
	C253.600937,26.872580 256.032471,26.746994 258.464020,26.621410 
	C258.415680,26.136309 258.367340,25.651207 258.319000,25.166105 
	C255.245407,25.537825 252.171814,25.909544 248.000351,26.414038 
	C249.537308,26.782572 249.974228,26.887335 251.169388,26.998165 
M240.650055,25.943493 
	C239.324829,25.727613 237.999603,25.511736 236.674362,25.295856 
	C236.646729,25.671984 236.619080,26.048113 236.591431,26.424240 
	C238.979492,26.424240 241.367569,26.424240 243.755630,26.424240 
	C243.761383,26.316593 243.767136,26.208944 243.772888,26.101297 
	C242.979309,26.061514 242.185715,26.021732 240.650055,25.943493 
M273.299255,27.616224 
	C273.176178,27.721806 273.022491,27.807869 272.939056,27.938725 
	C272.862946,28.058121 272.828674,28.353165 272.834259,28.354666 
	C274.656281,28.845818 276.483276,29.318245 278.310211,29.791071 
	C278.372314,29.356405 278.434448,28.921738 278.496552,28.487072 
	C276.980499,28.176382 275.464447,27.865694 273.299255,27.616224 
M190.035645,38.002487 
	C188.608795,38.729172 187.181946,39.455860 185.755096,40.182549 
	C186.089508,40.595833 186.423904,41.009113 186.758301,41.422394 
	C188.037292,40.202171 189.316299,38.981949 190.035645,38.002487 
M197.924957,35.990326 
	C198.122375,35.742741 198.342499,35.508656 198.502762,35.238987 
	C198.548218,35.162483 198.388107,34.862976 198.374496,34.866516 
	C196.858658,35.260788 195.347794,35.674126 193.836639,36.086395 
	C193.938461,36.407585 194.040283,36.728775 194.142105,37.049961 
	C195.213791,36.790913 196.285492,36.531860 197.924957,35.990326 
M285.860413,31.690832 
	C285.973541,31.574526 286.132050,31.475628 286.185486,31.336409 
	C286.228271,31.224934 286.171051,30.956921 286.111206,30.941557 
	C284.799988,30.604879 283.482208,30.293839 282.165710,29.977884 
	C282.136505,30.196493 282.107300,30.415100 282.078125,30.633707 
	C283.136841,30.964546 284.195526,31.295385 285.860413,31.690832 
M294.225616,34.358562 
	C294.338684,34.237049 294.510437,34.131058 294.547882,33.989529 
	C294.583374,33.855419 294.501221,33.561108 294.431061,33.547878 
	C293.619873,33.394882 292.801147,33.281937 291.984406,33.158360 
	C291.950439,33.338890 291.916473,33.519417 291.882507,33.699947 
	C292.482605,33.894192 293.082733,34.088440 294.225616,34.358562 
M182.649628,42.905392 
	C182.972992,42.608780 183.296356,42.312168 183.619720,42.015560 
	C183.354950,41.913979 182.917007,41.663921 182.855011,41.736217 
	C182.568405,42.070465 182.386307,42.494331 182.649628,42.905392 
M301.246399,36.031998 
	C300.814758,36.154633 300.383087,36.277264 299.951447,36.399899 
	C300.054962,36.621059 300.158508,36.842224 300.262024,37.063385 
	C300.763458,36.748089 301.264893,36.432796 301.246399,36.031998 
M179.652267,44.369762 
	C179.578690,44.118999 179.505112,43.868237 179.431534,43.617477 
	C179.152695,43.889896 178.873856,44.162312 178.595016,44.434731 
	C178.844070,44.514393 179.093124,44.594055 179.652267,44.369762 
M289.175293,32.749744 
	C289.120148,32.584156 289.064972,32.418571 289.009827,32.252987 
	C288.956329,32.419392 288.902802,32.585800 289.175293,32.749744 
M92.170860,22.750422 
	C92.116974,22.587912 92.063095,22.425402 92.009216,22.262894 
	C91.957207,22.425634 91.905197,22.588375 92.170860,22.750422 
M297.411041,35.477867 
	C297.411041,35.477867 297.528198,35.406467 297.411041,35.477867 
M93.478462,24.594458 
	C93.478462,24.594458 93.408218,24.479942 93.478462,24.594458 
z"/>
<path fill="#FAFAFA" opacity="1.000000" stroke="none" 
	d="
M363.999512,218.972900 
	C336.187592,273.804230 275.385864,301.495911 216.655899,287.018921 
	C165.653976,274.446838 127.212761,232.213181 119.379250,180.507339 
	C119.183708,179.216614 119.180206,177.896820 119.064484,176.272751 
	C204.863190,176.272751 290.440765,176.272751 376.534424,176.272751 
	C375.173828,191.324585 370.607910,205.244049 363.999512,218.972900 
M281.018982,246.531143 
	C282.253052,247.376236 283.451599,248.279633 284.726715,249.057404 
	C297.217590,256.676300 313.606873,255.694733 324.986572,246.668976 
	C337.035767,237.112183 341.688538,221.649704 336.845459,207.258621 
	C332.085083,193.113281 318.919647,183.387390 304.062897,183.040710 
	C289.020355,182.689682 275.632721,191.492447 270.007050,205.433395 
	C264.226105,219.759109 268.020294,234.500488 281.018982,246.531143 
M233.596771,211.300720 
	C228.627029,191.421036 210.739227,179.758896 191.415695,183.800293 
	C173.130249,187.624588 160.585770,205.471985 163.512863,223.498444 
	C166.804031,243.766937 184.764694,256.963989 204.683670,253.749771 
	C224.067535,250.621902 236.720734,232.533432 233.596771,211.300720 
M247.570267,257.551422 
	C243.978378,258.644470 239.997406,259.095551 236.886002,260.981354 
	C232.245911,263.793732 232.444672,268.684601 236.636261,272.196228 
	C242.089584,276.764893 253.665100,276.697266 259.076904,272.065094 
	C263.197510,268.538116 263.273987,263.694183 258.599609,260.868927 
	C255.609055,259.061432 251.811478,258.589172 247.570267,257.551422 
z"/>
<path fill="#F9C800" opacity="1.000000" stroke="none" 
	d="
M136.362183,94.355545 
	C167.189346,47.217651 210.429413,25.561550 265.965576,32.706760 
	C311.850952,38.610313 344.419098,64.678108 365.877258,106.378540 
	C286.820740,106.378540 208.815964,106.378540 129.876816,106.378540 
	C132.156326,102.137550 134.164246,98.401863 136.362183,94.355545 
M168.016678,79.514290 
	C165.439529,82.780434 162.870590,86.053101 160.282547,89.310593 
	C158.328964,91.769539 157.221146,94.452026 160.155441,96.732193 
	C163.213623,99.108627 165.084549,96.819901 167.162384,94.558792 
	C174.349701,86.737488 181.657043,79.019905 189.127869,71.469803 
	C191.287781,69.286964 193.547287,67.307594 191.210220,64.368118 
	C188.934937,61.506371 186.149689,62.575653 183.823563,64.712486 
	C178.681305,69.436340 173.597488,74.223839 168.016678,79.514290 
M320.182190,77.107269 
	C326.112061,84.214180 332.140442,91.242378 337.917114,98.471687 
	C339.878754,100.926582 342.256042,102.386520 344.511078,100.278458 
	C345.716492,99.151588 346.080841,95.275345 345.083618,93.947968 
	C339.429352,86.421684 333.374268,79.179649 327.129028,72.130142 
	C326.034027,70.894104 322.636932,70.032463 321.645508,70.779526 
	C320.324463,71.774979 320.317963,74.514900 320.182190,77.107269 
M186.571075,85.085251 
	C184.591980,87.947128 182.602615,90.801979 180.636932,93.673035 
	C178.964981,96.115097 178.962708,98.961929 181.595016,100.025703 
	C183.201889,100.675064 186.484146,99.666893 187.740097,98.263336 
	C193.024139,92.358261 197.777145,85.981483 202.835876,79.869522 
	C204.652939,77.674141 205.496048,75.532860 203.241470,73.325951 
	C200.992386,71.124405 198.641617,71.805206 196.701111,73.863487 
	C193.407532,77.356972 190.238037,80.967438 186.571075,85.085251 
M310.946228,87.571404 
	C308.207031,84.250359 305.717499,80.661491 302.595490,77.751083 
	C301.477234,76.708588 297.788147,76.487701 297.121887,77.339088 
	C296.057281,78.699539 295.635254,81.853912 296.523682,83.223900 
	C300.023621,88.621109 303.939026,93.793953 308.166260,98.643898 
	C309.265808,99.905441 312.053772,99.695366 314.066254,100.161209 
	C314.428864,98.105057 315.446167,95.884453 314.981873,94.036018 
	C314.448578,91.912903 312.603027,90.119400 310.946228,87.571404 
M203.028976,98.947876 
	C204.719696,101.802010 207.366211,102.597748 209.596115,100.350998 
	C213.414322,96.503883 216.846786,92.226532 220.029404,87.831612 
	C220.761703,86.820412 220.341324,84.233612 219.498184,83.052147 
	C218.798416,82.071548 215.989914,81.246834 215.328522,81.800926 
	C209.965790,86.293495 204.115860,90.548218 203.028976,98.947876 
z"/>
<path fill="#C80017" opacity="1.000000" stroke="none" 
	d="
M189.000000,146.856644 
	C165.549377,146.856537 142.598755,146.856537 118.243721,146.856537 
	C120.100830,138.406433 121.432381,130.628647 123.559967,123.075096 
	C126.649849,112.105118 126.894829,112.174126 138.415756,112.174126 
	C213.052841,112.174110 287.690063,112.234322 362.326630,112.035072 
	C367.168365,112.022141 369.245361,113.658066 370.310760,117.951004 
	C372.616150,127.240387 375.073090,136.492172 377.751678,146.856750 
	C313.966644,146.856750 251.733322,146.856750 189.000000,146.856644 
z"/>
<path fill="#FBFBFB" opacity="1.000000" stroke="none" 
	d="
M169.055176,355.927795 
	C168.639755,350.716675 168.261871,345.954010 167.778519,339.862244 
	C191.733566,359.515503 219.370682,362.383148 247.528107,362.386169 
	C275.759064,362.389221 303.515961,359.729645 327.156494,340.320892 
	C327.258392,341.979248 327.448975,343.208344 327.391022,344.425568 
	C326.787018,357.114380 325.236237,369.634277 320.587036,381.584930 
	C313.349487,400.188904 299.330902,411.055298 280.432770,415.674438 
	C258.749451,420.974243 236.831497,420.995667 215.156235,415.677460 
	C188.116379,409.042969 174.435959,390.375916 170.141464,363.790100 
	C169.743515,361.326630 169.440048,358.847870 169.055176,355.927795 
z"/>
<path fill="#FAFAFA" opacity="1.000000" stroke="none" 
	d="
M395.898621,415.118317 
	C383.362000,418.984436 372.017365,415.423981 365.483978,405.822510 
	C358.479034,395.528137 359.733704,383.935974 369.515045,371.944794 
	C362.642975,365.606567 356.147278,358.689301 348.719177,352.986511 
	C338.184906,344.899017 331.926971,336.045502 332.705597,321.538727 
	C333.466705,307.357544 328.034515,293.766907 321.556458,280.988495 
	C320.773529,279.444122 320.075256,277.856781 319.337738,276.289368 
	C319.810944,275.882446 320.284119,275.475525 320.757294,275.068634 
	C345.680603,297.731598 370.603912,320.394562 395.797424,343.303223 
	C401.235962,337.329407 407.561554,332.734070 415.676117,333.281250 
	C420.791748,333.626190 426.308228,335.006775 430.708038,337.546051 
	C440.105408,342.969757 444.136017,354.516571 441.424500,364.897949 
	C438.177490,377.329620 429.735748,382.801178 411.530457,384.273987 
	C413.129547,400.317841 408.796051,409.038788 395.898621,415.118317 
z"/>
<path fill="#FBFBFB" opacity="1.000000" stroke="none" 
	d="
M175.933960,276.706573 
	C166.091965,295.373657 161.442352,314.853088 161.976837,335.634521 
	C162.026672,337.571960 160.685059,340.050873 159.203781,341.441284 
	C148.307770,351.668976 137.211746,361.683563 126.215164,371.731964 
	C136.389099,386.048553 137.145721,397.080139 128.865143,407.477539 
	C122.007278,416.088593 109.889526,419.218445 99.538635,415.052307 
	C87.678551,410.278687 82.710083,400.420898 84.112770,383.846924 
	C75.654434,384.823395 67.496681,383.517975 61.689999,377.071716 
	C58.278164,373.284088 55.369499,368.319489 54.168056,363.411011 
	C51.436352,352.250763 56.995277,341.428375 66.917953,336.097198 
	C77.807434,330.246582 89.035255,332.577972 99.844582,343.274628 
	C102.099632,341.245239 104.405899,339.193390 106.686699,337.113586 
	C128.331741,317.375946 149.956161,297.615662 171.663956,277.947327 
	C172.715591,276.994476 174.488922,276.838196 175.933960,276.706573 
z"/>
<path fill="#FBFBFB" opacity="1.000000" stroke="none" 
	d="
M405.951691,39.621990 
	C405.210388,23.718912 414.578094,11.971850 428.525055,10.815649 
	C442.947418,9.620037 454.752289,19.004978 456.556244,33.328926 
	C456.963654,36.563873 456.616150,39.893898 456.616150,43.643402 
	C464.409912,42.857796 472.512421,43.830269 478.214600,50.153568 
	C481.742523,54.065792 484.723541,59.119804 486.122772,64.167770 
	C489.020844,74.622757 483.369171,85.810623 473.703247,91.215889 
	C462.895111,97.259911 451.733215,95.033127 440.328979,84.243492 
	C421.019043,101.902840 401.673950,119.594376 381.865082,137.710022 
	C379.954773,130.893143 378.422302,124.511314 376.351868,118.309067 
	C374.511414,112.795784 372.385193,107.325859 369.784271,102.138031 
	C368.226959,99.031807 368.457214,97.353127 371.065674,95.015457 
	C384.335999,83.122635 397.400970,71.000801 410.558014,58.981239 
	C411.766602,57.877144 413.117676,56.929008 413.284424,56.796577 
	C410.560822,50.543552 408.278748,45.304283 405.951691,39.621990 
z"/>
<path fill="#FBFBFB" opacity="1.000000" stroke="none" 
	d="
M119.496552,90.514679 
	C127.447891,97.841034 127.089203,97.702751 123.241844,107.682076 
	C119.553154,117.249870 116.715714,127.145851 113.356369,137.346420 
	C94.140717,119.772507 74.801628,102.085701 55.496006,84.429504 
	C41.065140,95.746559 30.812965,97.364479 20.123793,90.140022 
	C10.947809,83.938263 6.830786,72.722481 9.823044,62.078224 
	C13.306219,49.687645 21.968027,44.148396 39.634373,43.335766 
	C37.933144,35.021091 38.547657,26.766409 44.517887,20.495501 
	C48.140938,16.689987 53.032162,13.403948 57.979183,11.690042 
	C68.273865,8.123434 79.714020,12.973876 85.796288,22.260258 
	C92.477188,32.460625 91.127594,43.619858 81.491661,55.636406 
	C94.052513,67.167458 106.641495,78.724319 119.496552,90.514679 
z"/>
<path fill="#FECC00" opacity="1.000000" stroke="none" 
	d="
M363.999939,170.154938 
	C262.518555,170.155426 161.537155,170.156464 60.555767,170.152847 
	C58.723595,170.152786 56.869877,170.265717 55.063519,170.034500 
	C50.666481,169.471649 47.590942,165.845779 47.585709,161.449860 
	C47.580276,156.888229 50.429943,153.439484 54.938457,152.791428 
	C56.740147,152.532440 58.594593,152.588974 60.425034,152.588867 
	C185.235367,152.581192 310.045685,152.581802 434.856018,152.588486 
	C436.687164,152.588577 438.536072,152.527939 440.346008,152.747971 
	C445.148987,153.331924 448.154022,156.825989 448.089600,161.558090 
	C448.027527,166.117325 444.709045,169.776657 439.982269,170.071442 
	C436.163849,170.309570 432.320221,170.153061 428.487762,170.153687 
	C407.158508,170.157166 385.829224,170.155151 363.999939,170.154938 
z"/>
<path fill="#F7F7F7" opacity="1.000000" stroke="none" 
	d="
M227.096115,355.919617 
	C220.069016,354.945221 213.502319,353.997253 206.338531,352.963074 
	C207.379608,343.130920 208.368362,333.792908 209.352188,324.501373 
	C221.316040,325.620667 232.842590,326.699066 244.663284,327.804993 
	C244.663284,337.134705 244.663284,346.570648 244.663284,356.913666 
	C238.996445,356.593109 233.276474,356.269592 227.096115,355.919617 
z"/>
<path fill="#F8F8F8" opacity="1.000000" stroke="none" 
	d="
M259.674561,356.489258 
	C256.586853,356.511688 253.962601,356.511688 251.040176,356.511688 
	C251.040176,346.857819 251.040176,337.303375 251.040176,327.808838 
	C262.759857,326.707581 274.287842,325.624329 286.305176,324.495117 
	C287.313873,333.614410 288.332153,342.820587 289.483185,353.226746 
	C279.472900,354.332001 269.805450,355.399414 259.674561,356.489258 
z"/>
<path fill="#F6F6F6" opacity="1.000000" stroke="none" 
	d="
M189.840897,347.147644 
	C188.299835,346.408569 187.042145,345.931488 185.910736,345.245972 
	C165.208588,332.701904 165.358337,332.314728 170.598038,308.511292 
	C181.304993,313.521088 192.175369,318.607330 203.695328,323.997528 
	C202.806000,332.188477 201.808289,341.377777 200.739059,351.225616 
	C196.916870,349.808777 193.549957,348.560669 189.840897,347.147644 
z"/>
<path fill="#F7F7F7" opacity="1.000000" stroke="none" 
	d="
M298.870331,349.845795 
	C297.550873,350.249634 296.605438,350.537903 295.049927,351.012146 
	C293.962158,341.465790 292.904083,332.180267 291.962921,323.920868 
	C303.442261,318.589966 314.198792,313.594727 325.791626,308.211090 
	C326.401825,315.079712 327.241882,322.567841 327.580444,330.078552 
	C327.644867,331.507172 325.930786,333.232452 324.686737,334.467804 
	C317.471039,341.633057 308.788544,346.414246 298.870331,349.845795 
z"/>
<path fill="#F7F7F7" opacity="1.000000" stroke="none" 
	d="
M212.369827,318.746826 
	C211.358429,317.995239 210.193390,317.278015 210.251495,316.679504 
	C211.034454,308.614899 211.987717,300.566803 212.881302,292.669067 
	C223.716080,294.173004 234.022934,295.603668 244.648102,297.078522 
	C244.648102,304.946808 244.648102,312.984467 244.648102,322.126617 
	C233.833588,321.009918 223.309189,319.923187 212.369827,318.746826 
z"/>
<path fill="#F8F8F8" opacity="1.000000" stroke="none" 
	d="
M284.812683,310.891144 
	C285.050873,313.452606 285.254242,315.580444 285.565735,318.839081 
	C274.034119,319.906952 262.753540,320.951569 251.067459,322.033722 
	C251.067459,313.115265 251.067459,305.069946 251.067459,297.066956 
	C261.433441,295.625031 271.735229,294.192047 282.727692,292.662994 
	C283.388641,298.399506 284.083282,304.428528 284.812683,310.891144 
z"/>
<path fill="#F6F6F6" opacity="1.000000" stroke="none" 
	d="
M179.527893,282.675079 
	C180.639587,279.814301 181.883789,279.384705 184.561127,280.696289 
	C190.964188,283.833008 197.677017,286.334564 204.108704,289.418121 
	C205.429443,290.051361 206.965530,292.165863 206.874969,293.493439 
	C206.356293,301.097137 205.376648,308.669373 204.484421,316.888275 
	C192.812988,314.020691 182.358917,309.486206 173.554169,301.617798 
	C172.827423,300.968353 172.808960,298.840759 173.243042,297.696472 
	C175.125626,292.733765 177.298401,287.881134 179.527893,282.675079 
z"/>
<path fill="#F8F8F8" opacity="1.000000" stroke="none" 
	d="
M313.780121,279.791077 
	C316.976929,286.031311 319.920074,292.132874 322.482483,298.390350 
	C322.904144,299.420105 322.076630,301.628662 321.110352,302.454895 
	C312.619904,309.714569 302.625671,313.956360 291.230896,316.874573 
	C290.317871,308.517883 289.330475,300.509399 288.709900,292.472595 
	C288.634003,291.489044 290.324127,289.919586 291.536621,289.359802 
	C298.768646,286.021088 306.100800,282.899170 313.780121,279.791077 
z"/>
<path fill="#0E0F10" opacity="1.000000" stroke="none" 
	d="
M410.000000,147.998169 
	C401.025421,147.998169 392.550873,147.998169 384.076294,147.998169 
	C384.074677,147.607254 384.073029,147.216354 384.071381,146.825439 
	C402.797577,146.825439 421.523773,146.825439 440.250000,146.825439 
	C440.268646,147.216354 440.287292,147.607254 440.305939,147.998169 
	C430.370636,147.998169 420.435303,147.998169 410.000000,147.998169 
z"/>
<path fill="#0F1011" opacity="1.000000" stroke="none" 
	d="
M87.971092,146.001846 
	C93.890549,146.320953 99.315170,146.640045 104.739799,146.959137 
	C104.730553,147.170319 104.721298,147.381500 104.712051,147.592682 
	C88.049103,147.592682 71.386154,147.592682 54.723202,147.592682 
	C54.713455,147.062393 54.703709,146.532120 54.693958,146.001831 
	C65.621391,146.001831 76.548828,146.001831 87.971092,146.001846 
z"/>
<path fill="#121112" opacity="1.000000" stroke="none" 
	d="
M95.586624,39.048183 
	C94.899323,38.180737 94.177132,37.033379 94.047005,35.822407 
	C93.725670,32.831944 93.675774,29.812317 93.516769,26.804413 
	C93.955765,26.757765 94.394768,26.711119 94.833763,26.664471 
	C95.162895,30.689423 95.492027,34.714375 95.586624,39.048183 
z"/>
<path fill="#111214" opacity="1.000000" stroke="none" 
	d="
M210.136734,31.679596 
	C206.811462,32.857376 203.760422,33.840775 200.709396,34.824169 
	C200.568527,34.209106 200.427658,33.594044 200.286789,32.978985 
	C203.661530,32.481060 207.036255,31.983135 210.136734,31.679596 
z"/>
<path fill="#151515" opacity="1.000000" stroke="none" 
	d="
M139.048462,389.633514 
	C139.400925,388.511597 139.714722,387.780701 140.536285,385.867096 
	C140.536285,389.864197 140.536285,392.590027 140.536285,395.315887 
	C140.118927,395.347137 139.701569,395.378387 139.284210,395.409637 
	C139.192734,393.614594 139.101273,391.819580 139.048462,389.633514 
z"/>
<path fill="#121213" opacity="1.000000" stroke="none" 
	d="
M310.925354,41.957733 
	C308.473480,40.697742 306.340759,39.577446 304.208008,38.457150 
	C304.378479,38.112144 304.548950,37.767143 304.719391,37.422138 
	C307.859222,38.972786 310.999023,40.523434 314.138855,42.074085 
	C314.077637,42.318733 314.016418,42.563381 313.955200,42.808033 
	C313.051636,42.571163 312.148071,42.334293 310.925354,41.957733 
z"/>
<path fill="#0B0F10" opacity="1.000000" stroke="none" 
	d="
M250.790253,26.995132 
	C249.974228,26.887335 249.537308,26.782572 248.000351,26.414038 
	C252.171814,25.909544 255.245407,25.537825 258.319000,25.166105 
	C258.367340,25.651207 258.415680,26.136309 258.464020,26.621410 
	C256.032471,26.746994 253.600937,26.872580 250.790253,26.995132 
z"/>
<path fill="#0B0F10" opacity="1.000000" stroke="none" 
	d="
M241.021088,25.962721 
	C242.185715,26.021732 242.979309,26.061514 243.772888,26.101297 
	C243.767136,26.208944 243.761383,26.316593 243.755630,26.424240 
	C241.367569,26.424240 238.979492,26.424240 236.591431,26.424240 
	C236.619080,26.048113 236.646729,25.671984 236.674362,25.295856 
	C237.999603,25.511736 239.324829,25.727613 241.021088,25.962721 
z"/>
<path fill="#121213" opacity="1.000000" stroke="none" 
	d="
M273.623840,27.585613 
	C275.464447,27.865694 276.980499,28.176382 278.496552,28.487072 
	C278.434448,28.921738 278.372314,29.356405 278.310211,29.791071 
	C276.483276,29.318245 274.656281,28.845818 272.834259,28.354666 
	C272.828674,28.353165 272.862946,28.058121 272.939056,27.938725 
	C273.022491,27.807869 273.176178,27.721806 273.623840,27.585613 
z"/>
<path fill="#111214" opacity="1.000000" stroke="none" 
	d="
M190.315460,37.882107 
	C189.316299,38.981949 188.037292,40.202171 186.758301,41.422394 
	C186.423904,41.009113 186.089508,40.595833 185.755096,40.182549 
	C187.181946,39.455860 188.608795,38.729172 190.315460,37.882107 
z"/>
<path fill="#111214" opacity="1.000000" stroke="none" 
	d="
M197.641068,36.131569 
	C196.285492,36.531860 195.213791,36.790913 194.142105,37.049961 
	C194.040283,36.728775 193.938461,36.407585 193.836639,36.086395 
	C195.347794,35.674126 196.858658,35.260788 198.374496,34.866516 
	C198.388107,34.862976 198.548218,35.162483 198.502762,35.238987 
	C198.342499,35.508656 198.122375,35.742741 197.641068,36.131569 
z"/>
<path fill="#121213" opacity="1.000000" stroke="none" 
	d="
M285.557312,31.658527 
	C284.195526,31.295385 283.136841,30.964546 282.078125,30.633707 
	C282.107300,30.415100 282.136505,30.196493 282.165710,29.977884 
	C283.482208,30.293839 284.799988,30.604879 286.111206,30.941557 
	C286.171051,30.956921 286.228271,31.224934 286.185486,31.336409 
	C286.132050,31.475628 285.973541,31.574526 285.557312,31.658527 
z"/>
<path fill="#121213" opacity="1.000000" stroke="none" 
	d="
M293.954224,34.320625 
	C293.082733,34.088440 292.482605,33.894192 291.882507,33.699947 
	C291.916473,33.519417 291.950439,33.338890 291.984406,33.158360 
	C292.801147,33.281937 293.619873,33.394882 294.431061,33.547878 
	C294.501221,33.561108 294.583374,33.855419 294.547882,33.989529 
	C294.510437,34.131058 294.338684,34.237049 293.954224,34.320625 
z"/>
<path fill="#111214" opacity="1.000000" stroke="none" 
	d="
M182.408203,42.895744 
	C182.386307,42.494331 182.568405,42.070465 182.855011,41.736217 
	C182.917007,41.663921 183.354950,41.913979 183.619720,42.015556 
	C183.296356,42.312168 182.972992,42.608780 182.408203,42.895744 
z"/>
<path fill="#111214" opacity="1.000000" stroke="none" 
	d="
M174.002411,47.001625 
	C174.742905,46.496666 175.483398,45.991703 176.223892,45.486736 
	C176.355560,45.704857 176.487228,45.922977 176.618896,46.141094 
	C175.952744,46.426311 175.286591,46.711529 174.310211,46.998375 
	C174.000000,47.000000 174.002411,47.001621 174.002411,47.001625 
z"/>
<path fill="#121213" opacity="1.000000" stroke="none" 
	d="
M301.506348,36.074749 
	C301.264893,36.432796 300.763458,36.748089 300.262024,37.063385 
	C300.158508,36.842224 300.054962,36.621059 299.951447,36.399899 
	C300.383087,36.277264 300.814758,36.154633 301.506348,36.074749 
z"/>
<path fill="#111214" opacity="1.000000" stroke="none" 
	d="
M179.497223,44.521740 
	C179.093124,44.594055 178.844070,44.514393 178.595016,44.434731 
	C178.873856,44.162312 179.152695,43.889896 179.431549,43.617477 
	C179.505112,43.868237 179.578690,44.118999 179.497223,44.521740 
z"/>
<path fill="#121213" opacity="1.000000" stroke="none" 
	d="
M289.012299,32.750977 
	C288.902802,32.585800 288.956329,32.419392 289.009827,32.252987 
	C289.064972,32.418571 289.120148,32.584156 289.012299,32.750977 
z"/>
<path fill="#121112" opacity="1.000000" stroke="none" 
	d="
M92.012024,22.750769 
	C91.905197,22.588375 91.957207,22.425634 92.009216,22.262894 
	C92.063095,22.425402 92.116974,22.587912 92.012024,22.750769 
z"/>
<path fill="#111214" opacity="1.000000" stroke="none" 
	d="
M173.998779,46.998672 
	C173.878937,47.420006 173.760315,47.842670 173.641678,48.265335 
	C173.628235,47.925385 173.614792,47.585430 173.801880,47.123550 
	C174.002411,47.001621 174.000000,47.000000 173.998779,46.998672 
z"/>
<path fill="#121213" opacity="1.000000" stroke="none" 
	d="
M297.469604,35.442169 
	C297.528198,35.406467 297.411041,35.477867 297.469604,35.442169 
z"/>
<path fill="#121112" opacity="1.000000" stroke="none" 
	d="
M93.443344,24.537201 
	C93.408218,24.479942 93.478462,24.594458 93.443344,24.537201 
z"/>
<path fill="#030303" opacity="1.000000" stroke="none" 
	d="
M280.742828,246.301544 
	C268.020294,234.500488 264.226105,219.759109 270.007050,205.433395 
	C275.632721,191.492447 289.020355,182.689682 304.062897,183.040710 
	C318.919647,183.387390 332.085083,193.113281 336.845459,207.258621 
	C341.688538,221.649704 337.035767,237.112183 324.986572,246.668976 
	C313.606873,255.694733 297.217590,256.676300 284.726715,249.057404 
	C283.451599,248.279633 282.253052,247.376236 280.742828,246.301544 
z"/>
<path fill="#030303" opacity="1.000000" stroke="none" 
	d="
M233.686829,211.730011 
	C236.720734,232.533432 224.067535,250.621902 204.683670,253.749771 
	C184.764694,256.963989 166.804031,243.766937 163.512863,223.498444 
	C160.585770,205.471985 173.130249,187.624588 191.415695,183.800293 
	C210.739227,179.758896 228.627029,191.421036 233.686829,211.730011 
z"/>
<path fill="#080808" opacity="1.000000" stroke="none" 
	d="
M247.972977,257.534851 
	C251.811478,258.589172 255.609055,259.061432 258.599609,260.868927 
	C263.273987,263.694183 263.197510,268.538116 259.076904,272.065094 
	C253.665100,276.697266 242.089584,276.764893 236.636261,272.196228 
	C232.444672,268.684601 232.245911,263.793732 236.886002,260.981354 
	C239.997406,259.095551 243.978378,258.644470 247.972977,257.534851 
z"/>
<path fill="#0E0B00" opacity="1.000000" stroke="none" 
	d="
M168.253265,79.249832 
	C173.597488,74.223839 178.681305,69.436340 183.823563,64.712486 
	C186.149689,62.575653 188.934937,61.506371 191.210220,64.368118 
	C193.547287,67.307594 191.287781,69.286964 189.127869,71.469803 
	C181.657043,79.019905 174.349701,86.737488 167.162384,94.558792 
	C165.084549,96.819901 163.213623,99.108627 160.155441,96.732193 
	C157.221146,94.452026 158.328964,91.769539 160.282547,89.310593 
	C162.870590,86.053101 165.439529,82.780434 168.253265,79.249832 
z"/>
<path fill="#0F0C00" opacity="1.000000" stroke="none" 
	d="
M319.964478,76.806374 
	C320.317963,74.514900 320.324463,71.774979 321.645508,70.779526 
	C322.636932,70.032463 326.034027,70.894104 327.129028,72.130142 
	C333.374268,79.179649 339.429352,86.421684 345.083618,93.947968 
	C346.080841,95.275345 345.716492,99.151588 344.511078,100.278458 
	C342.256042,102.386520 339.878754,100.926582 337.917114,98.471687 
	C332.140442,91.242378 326.112061,84.214180 319.964478,76.806374 
z"/>
<path fill="#0F0B00" opacity="1.000000" stroke="none" 
	d="
M186.793732,84.806992 
	C190.238037,80.967438 193.407532,77.356972 196.701111,73.863487 
	C198.641617,71.805206 200.992386,71.124405 203.241470,73.325951 
	C205.496048,75.532860 204.652939,77.674141 202.835876,79.869522 
	C197.777145,85.981483 193.024139,92.358261 187.740097,98.263336 
	C186.484146,99.666893 183.201889,100.675064 181.595016,100.025703 
	C178.962708,98.961929 178.964981,96.115097 180.636932,93.673035 
	C182.602615,90.801979 184.591980,87.947128 186.793732,84.806992 
z"/>
<path fill="#100C00" opacity="1.000000" stroke="none" 
	d="
M311.136841,87.877060 
	C312.603027,90.119400 314.448578,91.912903 314.981873,94.036018 
	C315.446167,95.884453 314.428864,98.105057 314.066254,100.161209 
	C312.053772,99.695366 309.265808,99.905441 308.166260,98.643898 
	C303.939026,93.793953 300.023621,88.621109 296.523682,83.223900 
	C295.635254,81.853912 296.057281,78.699539 297.121887,77.339088 
	C297.788147,76.487701 301.477234,76.708588 302.595490,77.751083 
	C305.717499,80.661491 308.207031,84.250359 311.136841,87.877060 
z"/>
<path fill="#100C00" opacity="1.000000" stroke="none" 
	d="
M202.933228,98.568665 
	C204.115860,90.548218 209.965790,86.293495 215.328522,81.800926 
	C215.989914,81.246834 218.798416,82.071548 219.498184,83.052147 
	C220.341324,84.233612 220.761703,86.820412 220.029404,87.831612 
	C216.846786,92.226532 213.414322,96.503883 209.596115,100.350998 
	C207.366211,102.597748 204.719696,101.802010 202.933228,98.568665 
z"/>
</svg>